<?xml version="1.0" encoding="UTF-8" standalone="no"?>
<svg
   version="1.0"
   width="92.277542pt"
   height="40.769699pt"
   viewBox="0 0 435.0227 10.615759"
   preserveAspectRatio="xMidYMid"
   id="svg18"
   sodipodi:docname="logo.svg"
   inkscape:version="1.3.2 (091e20e, 2023-11-25, custom)"
   xmlns:inkscape="http://www.inkscape.org/namespaces/inkscape"
   xmlns:sodipodi="http://sodipodi.sourceforge.net/DTD/sodipodi-0.dtd"
   xmlns="http://www.w3.org/2000/svg"
   xmlns:svg="http://www.w3.org/2000/svg">
  <sodipodi:namedview
     id="namedview1"
     pagecolor="#505050"
     bordercolor="#eeeeee"
     borderopacity="1"
     inkscape:showpageshadow="0"
     inkscape:pageopacity="0"
     inkscape:pagecheckerboard="0"
     inkscape:deskcolor="#505050"
     inkscape:document-units="pt"
     inkscape:zoom="4.2586157"
     inkscape:cx="49.194389"
     inkscape:cy="21.955491"
     inkscape:window-width="1366"
     inkscape:window-height="705"
     inkscape:window-x="-8"
     inkscape:window-y="-8"
     inkscape:window-maximized="1"
     inkscape:current-layer="svg18" />
  <defs
     id="defs18" />
  <g
     transform="matrix(0.09809148,0,0,-0.09654423,-5.1674451,188.39257)"
     fill="#9b73c4"
     stroke="none"
     id="g18">
    <path
       d="m 2453,2813 c -45,-91 -289,-487 -434,-703 -267,-399 -540,-683 -716,-746 -90,-32 -137,-8 -135,71 2,178 224,454 327,407 33,-15 33,-50 -1,-131 -26,-65 -28,-101 -7,-108 35,-12 95,115 96,206 1,47 -2,56 -26,77 -38,33 -110,33 -175,0 -77,-39 -174,-150 -229,-263 -46,-94 -48,-101 -48,-185 0,-82 2,-88 29,-117 39,-40 83,-48 158,-27 163,45 299,157 517,424 46,56 87,102 91,102 4,0 33,-12 65,-26 49,-22 56,-29 51,-48 -45,-157 -95,-376 -101,-431 -13,-133 30,-267 102,-322 45,-35 143,-63 218,-63 55,0 65,3 70,20 9,29 1,37 -45,43 -56,7 -89,31 -110,80 -43,101 -34,253 31,491 l 41,153 51,13 c 38,9 64,26 105,65 55,54 60,70 29,89 -13,9 -25,3 -59,-31 -44,-42 -86,-68 -95,-60 -9,10 143,420 249,670 93,219 109,263 100,282 -10,22 -45,52 -104,89 l -27,18 z m -334,-774 c -39,-107 -73,-196 -75,-198 -5,-6 -104,33 -102,40 5,13 243,357 246,355 1,-2 -30,-90 -69,-197 z"
       id="path1" />
    <path
       d="m 2812,2770 c 4,-84 24,-115 93,-149 41,-21 62,-24 139,-24 50,1 111,6 136,11 24,6 46,9 49,6 8,-8 -52,-210 -116,-384 -63,-173 -223,-551 -290,-684 -57,-114 -140,-241 -182,-279 -44,-40 -99,-55 -136,-39 -103,47 -64,241 77,388 43,46 58,68 51,75 -29,29 -136,-74 -191,-182 -61,-121 -61,-238 0,-299 37,-37 82,-46 171,-31 202,33 299,137 451,484 110,249 321,806 335,883 24,126 4,221 -50,249 -42,22 -97,18 -231,-15 -125,-32 -212,-39 -245,-21 -11,6 -28,26 -37,46 -9,19 -19,35 -23,35 -3,0 -3,-31 -1,-70 z"
       id="path2" />
    <path
       d="m 3402,2807 c -19,-22 -4,-44 33,-51 20,-4 44,-19 59,-37 22,-26 26,-40 26,-97 0,-92 -50,-235 -188,-542 -143,-318 -157,-364 -157,-505 0,-99 3,-116 26,-160 34,-67 77,-95 146,-95 116,0 234,97 371,305 47,72 88,134 92,138 4,5 -11,-45 -33,-110 -31,-93 -41,-137 -45,-208 -4,-84 -2,-93 25,-145 38,-72 103,-107 224,-122 74,-9 84,-8 95,7 18,24 9,38 -39,60 -56,27 -68,56 -68,166 1,98 22,206 73,359 52,160 201,514 309,737 97,201 102,214 89,239 -22,41 -68,67 -124,72 l -51,4 -125,-277 c -284,-633 -520,-1019 -676,-1111 -79,-46 -101,-19 -91,115 6,99 35,183 162,473 117,267 174,424 182,503 16,158 -79,267 -257,291 -34,5 -49,2 -58,-9 z"
       id="path3" />
    <path
       d="m 1100,2779 c -121,-24 -246,-121 -308,-236 -72,-136 -85,-265 -56,-539 18,-172 14,-347 -11,-439 -42,-154 -125,-274 -223,-322 -48,-23 -69,-28 -132,-27 -105,0 -160,33 -195,116 -17,43 -20,169 -4,237 8,35 7,47 -4,58 -41,41 -71,-35 -72,-182 0,-87 3,-107 26,-156 45,-95 127,-139 260,-139 314,0 592,225 650,525 15,75 12,225 -5,360 -33,258 -36,303 -26,395 21,181 106,300 216,300 156,0 178,-126 49,-283 -45,-55 -52,-67 -40,-77 17,-14 52,11 106,77 102,127 112,238 26,307 -36,29 -45,31 -125,33 -48,1 -107,-2 -132,-8 z"
       id="path4" />
  </g>
</svg>
