<?xml version="1.0" encoding="UTF-8" standalone="no"?>
<svg
   version="1.0"
   width="122pt"
   height="30pt"
   viewBox="0 0 472 83.199989"
   preserveAspectRatio="xMidYMid"
   id="svg20"
   xmlns="http://www.w3.org/2000/svg"
   xmlns:svg="http://www.w3.org/2000/svg">
  <defs
     id="defs20" />
  <g
     transform="matrix(0.1,0,0,-0.1,-35.000003,131.9)"
     fill="#764EF9"
     stroke="none"
     id="g20">
    <path
       d="m 663,1291 -43,-27 120,-69 120,-69 V 987 848 l 43,25 42,25 v 143 143 l -115,67 c -63,37 -117,68 -120,68 -3,0 -24,-13 -47,-28 z"
       id="path1" />
    <path
       d="m 472,1179 -122,-70 v -50 c 0,-27 2,-49 5,-49 3,0 57,29 119,65 62,36 116,65 119,65 3,0 56,-29 118,-65 61,-36 113,-65 116,-65 2,0 3,23 1,52 l -3,51 -70,42 c -38,22 -91,53 -116,67 l -46,27 z"
       id="path2" />
    <path
       d="m 1322,963 3,-218 140,1 c 149,1 177,8 222,56 47,50 66,157 42,243 -6,22 -28,56 -48,76 -45,46 -102,59 -252,59 h -109 z m 239,104 c 28,-21 39,-54 39,-112 0,-49 -4,-60 -29,-86 -23,-23 -39,-29 -70,-29 h -41 v 120 120 h 43 c 23,0 49,-6 58,-13 z"
       id="path3" />
    <path
       d="m 1790,1140 v -40 h 60 60 v 40 40 h -60 -60 z"
       id="path4" />
    <path
       d="m 2350,1140 v -40 h 60 60 v 40 40 h -60 -60 z"
       id="path5" />
    <path
       d="M 3140,965 V 750 h 60 60 v 215 215 h -60 -60 z"
       id="path6"
       style="stroke:#000000;stroke-opacity:1" />
    <path
       d="m 3490,1173 c 0,-4 32,-104 71,-220 l 71,-213 h 68 c 68,0 68,0 80,33 6,17 40,116 75,220 l 64,187 h -69 -69 l -25,-82 c -14,-46 -31,-105 -39,-133 -17,-57 -15,-61 -60,95 l -34,115 -66,3 c -37,2 -67,-1 -67,-5 z"
       id="path7" />
    <path
       d="M 4700,965 V 750 h 60 60 v 215 215 h -60 -60 z"
       id="path8" />
    <path
       d="M 980,1023 V 884 l -120,-69 -120,-69 45,-28 44,-28 118,69 118,69 v 141 141 l -42,26 -43,25 z"
       id="path9" />
    <path
       d="m 2550,1100 c 0,-43 -3,-50 -20,-50 -16,0 -20,-7 -20,-30 0,-23 4,-30 20,-30 19,0 20,-7 20,-100 0,-86 3,-103 20,-120 25,-25 54,-32 111,-28 44,3 44,3 47,45 3,39 1,42 -25,45 -28,3 -28,4 -31,81 l -3,77 h 31 c 27,0 30,3 30,30 0,27 -3,30 -30,30 -29,0 -30,1 -30,50 v 50 h -60 -60 z"
       id="path10" />
    <path
       d="m 4900,1100 c 0,-47 -2,-50 -25,-50 -21,0 -25,-5 -25,-30 0,-23 4,-30 20,-30 19,0 20,-7 20,-89 0,-49 4,-101 10,-115 11,-30 66,-49 125,-44 39,3 40,4 43,45 3,37 0,42 -20,45 -21,3 -23,8 -26,81 -3,77 -3,77 23,77 21,0 25,5 25,30 0,25 -4,30 -25,30 -23,0 -25,3 -25,50 v 50 h -60 -60 z"
       id="path11" />
    <path
       d="m 470,1041 -115,-67 -3,-140 -2,-139 39,-22 c 22,-13 42,-23 45,-23 4,0 6,60 6,134 v 135 l 120,69 c 88,51 117,72 108,79 -13,11 -75,43 -80,43 -2,-1 -55,-31 -118,-69 z"
       id="path12" />
    <path
       d="m 2031,1052 c -72,-36 -99,-121 -67,-207 29,-75 117,-108 189,-71 26,15 27,14 27,-14 0,-38 -24,-60 -65,-60 -24,0 -38,6 -45,20 -9,16 -21,20 -67,20 h -55 l 6,-32 c 9,-47 34,-66 99,-78 68,-13 159,0 197,28 40,30 49,73 49,245 l 1,157 h -55 c -31,0 -55,-4 -55,-10 0,-6 -13,-4 -30,5 -38,20 -87,19 -129,-3 z m 127,-84 c 18,-18 15,-94 -4,-112 -35,-35 -84,-5 -84,52 0,58 54,94 88,60 z"
       id="path13" />
    <path
       d="m 2823,1055 c -26,-11 -63,-58 -63,-80 0,-3 27,-5 59,-5 43,0 60,4 65,15 7,20 65,20 73,0 8,-22 4,-24 -63,-35 -113,-20 -144,-44 -144,-112 0,-25 8,-46 24,-65 22,-26 30,-28 94,-28 44,0 75,5 85,14 11,9 17,10 17,2 0,-7 21,-11 55,-11 h 55 v 126 c 0,69 -5,134 -10,145 -18,33 -64,49 -142,49 -40,-1 -87,-7 -105,-15 z m 137,-184 c 0,-39 -81,-70 -93,-37 -6,16 7,31 44,45 37,15 49,13 49,-8 z"
       id="path14" />
    <path
       d="m 3973.7928,1050.8763 c -26,-11 -63,-57.99994 -63,-79.99999 0,-3 27,-5 59,-5 43,0 60,4 65,15 7,20.00009 65,20.00009 73,0 8,-22 4,-24 -63,-35 -113,-20 -144,-44 -144,-112 0,-25 8,-46 24,-65 22,-26 30,-28 94,-28 44,0 75,5 85,14 11,9 17,10 17,2 0,-7 21,-11 55,-11 h 55 v 126 c 0,69 -5,134.00009 -10,144.99999 -18,33 -64,49 -142,49 -40,-1 -87,-7 -105,-15 z m 137,-183.99999 c 0,-39 -81,-70 -93,-37 -6,16 7,31 44,45 37,15 49,13 49,-8 z"
       id="path14-4" />
    <path
       d="M 1790,900 V 740 h 60 60 v 160 160 h -60 -60 z"
       id="path16" />
    <path
       d="M 2350,905 V 750 h 60 60 v 155 155 h -60 -60 z"
       id="path17" />
    <path
       d="m 4290,958 c 0,-178 28,-223 132,-216 37,3 64,11 78,23 18,16 20,16 20,2 0,-14 11,-17 60,-17 h 60 v 155 155 h -60 -60 v -85 c 0,-101 -12,-135 -50,-135 -43,0 -50,16 -50,122 v 98 h -65 -65 z"
       id="path18" />
    <path
       d="M 508,924 470,900 V 762 624 l 121,-69 121,-68 44,23 c 24,13 41,27 38,30 -3,3 -56,34 -117,70 l -112,65 -3,138 c -1,75 -6,137 -10,136 -4,0 -24,-11 -44,-25 z"
       id="path19" />
    <path
       d="m 590,741 v -49 l 115,-66 c 63,-36 119,-66 125,-66 6,0 62,30 125,66 l 115,66 v 49 c 0,27 -3,49 -7,49 -3,0 -57,-30 -120,-66 L 830,658 717,724 c -63,36 -117,66 -120,66 -4,0 -7,-22 -7,-49 z"
       id="path20" />
  </g>
</svg>
